<?xml version="1.0" encoding="utf-8"?>
<!-- Generator: Adobe Illustrator 23.0.6, SVG Export Plug-In . SVG Version: 6.00 Build 0)  -->
<svg version="1.1" id="Layer_1" xmlns="http://www.w3.org/2000/svg" xmlns:xlink="http://www.w3.org/1999/xlink" x="0px" y="0px"
	 viewBox="0 0 800 256" style="enable-background:new 0 0 800 256;" xml:space="preserve">
<style type="text/css">
	.st0{fill:none;stroke:#404040;stroke-width:4;stroke-miterlimit:10;}
	.st1{fill:#4ED1A1;stroke:#404040;stroke-width:4;stroke-miterlimit:10;}
	.st2{fill:#B18BE8;stroke:#404040;stroke-width:4;stroke-miterlimit:10;}
	.st3{fill:none;stroke:#CCCCCC;stroke-width:4;stroke-linecap:round;stroke-linejoin:round;stroke-dasharray:0,14.1243;}
	.st4{fill:none;stroke:#CCCCCC;stroke-width:4;stroke-linecap:round;stroke-linejoin:round;stroke-dasharray:0,13.6844;}
	.st5{fill:none;stroke:#CCCCCC;stroke-width:4;stroke-linecap:round;stroke-linejoin:round;}
	.st6{fill:none;stroke:#CCCCCC;stroke-width:4;stroke-linecap:round;stroke-linejoin:round;stroke-dasharray:0,13.7717;}
	.st7{fill:none;stroke:#CCCCCC;stroke-width:4;stroke-linecap:round;stroke-linejoin:round;stroke-dasharray:0,13.6492;}
	.st8{fill:none;stroke:#CCCCCC;stroke-width:4;stroke-linecap:round;stroke-linejoin:round;stroke-dasharray:0,13.907;}
	.st9{fill:#DBC9F4;stroke:#404040;stroke-width:4;stroke-miterlimit:10;}
	.st10{fill:#ADEAD3;stroke:#404040;stroke-width:4;stroke-miterlimit:10;}
	.st11{fill:#B18BE8;stroke:#404040;stroke-width:4;stroke-linecap:round;stroke-linejoin:round;stroke-miterlimit:10;}
	.st12{fill:#404040;}
	.st13{fill:#4ED1A1;stroke:#404040;stroke-width:4;stroke-linecap:round;stroke-linejoin:round;stroke-miterlimit:10;}
	.st14{fill:none;stroke:#9C4040;stroke-width:4;stroke-linecap:round;stroke-linejoin:round;stroke-miterlimit:10;}
	.st15{fill:#9C4040;}
</style>
<path class="st0" d="M221.9,139.7c0-17-13.8-30.8-30.8-30.8 M132.3,232h213.9"/>
<circle class="st1" cx="283.6" cy="232" r="15.8"/>
<circle class="st1" cx="330.5" cy="232" r="15.8"/>
<circle class="st1" cx="210.2" cy="232" r="15.8"/>
<path class="st0" d="M764,109H147.6"/>
<circle class="st2" cx="283.6" cy="109" r="15.8"/>
<path class="st0" d="M221.9,139.7c0,17,13.8,30.8,30.8,30.8H377V109"/>
<circle class="st1" cx="283.6" cy="170.5" r="15.8"/>
<circle class="st1" cx="330.5" cy="170.5" r="15.8"/>
<g>
	<path class="st0" d="M573.6,139.7c0-17,13.8-30.8,30.8-30.8"/>
	<path class="st0" d="M542,170.5h0.9c17,0,30.7-13.8,30.7-30.8"/>
</g>
<path class="st3" d="M59.9,109H21.1"/>
<circle class="st1" cx="116.5" cy="232" r="15.8"/>
<path class="st4" d="M214.2,170.5H20.9"/>
<path class="st5" d="M776,170.5"/>
<path class="st6" d="M762.1,170.5H573.6"/>
<path class="st5" d="M91.3,232"/>
<path class="st7" d="M87.6,232H20.9"/>
<path class="st5" d="M776,232"/>
<path class="st8" d="M762.1,232H363.6"/>
<path class="st0" d="M74.9,109h104.3"/>
<circle class="st2" cx="163.4" cy="109" r="15.7"/>
<circle class="st2" cx="116.5" cy="109" r="15.8"/>
<path class="st0" d="M116.5,124.7v91.5"/>
<line class="st0" x1="377" y1="170.5" x2="545.8" y2="170.5"/>
<circle class="st9" cx="420.4" cy="170.4" r="15.8"/>
<circle class="st10" cx="472.4" cy="170.5" r="15.8"/>
<circle class="st10" cx="519.3" cy="170.5" r="15.8"/>
<circle class="st2" cx="622.8" cy="108.8" r="15.8"/>
<circle class="st1" cx="674.8" cy="108.9" r="15.8"/>
<circle class="st1" cx="721.7" cy="108.9" r="15.8"/>
<path class="st11" d="M7.7,9.3h96.2v50H7.7V9.3z"/>
<path class="st12" d="M28,40.3V29.7h3.7c2.7,0,5.1,1.8,5.1,5.3s-2.4,5.3-5.1,5.3H28z M31.7,39c2,0,3.6-1.3,3.6-4s-1.6-4-3.6-4h-2.2
	v8H31.7z M45.7,38.2c-0.4,1.3-1.6,2.3-3.2,2.3c-1.9,0-3.6-1.4-3.6-3.9c0-2.3,1.6-3.8,3.5-3.8c2.2,0,3.5,1.5,3.5,3.8v0.5h-5.4
	c0,1.3,1,2.2,2.2,2.2s1.8-0.6,2-1.5L45.7,38.2z M44.3,35.9c0-1-0.7-1.8-2-1.8c-1.2,0-1.9,0.9-2,1.8H44.3z M51.8,40.3h-1.4l-2.9-7.2
	h1.6l2.1,5.6l2.1-5.6h1.5L51.8,40.3L51.8,40.3z M62.5,38.2c-0.4,1.3-1.6,2.3-3.2,2.3c-1.9,0-3.6-1.4-3.6-3.9c0-2.3,1.6-3.8,3.5-3.8
	c2.2,0,3.5,1.5,3.5,3.8v0.5h-5.4c0,1.3,1,2.2,2.2,2.2s1.8-0.6,2-1.5L62.5,38.2z M61.1,35.9c0-1-0.7-1.8-2-1.8c-1.2,0-1.9,0.9-2,1.8
	H61.1z M65.1,40.3V29.4h1.4v10.9H65.1z M76.4,36.7c0,2.2-1.5,3.8-3.7,3.8S69,38.9,69,36.7s1.5-3.8,3.7-3.8S76.4,34.5,76.4,36.7z
	 M75,36.7c0-1.7-1-2.6-2.2-2.6s-2.2,0.9-2.2,2.6c0,1.7,1,2.6,2.2,2.6S75,38.4,75,36.7z M79,43.1v-10h1.4v1.1
	c0.4-0.7,1.2-1.3,2.4-1.3c2.2,0,3.3,1.7,3.3,3.8s-1.2,3.8-3.4,3.8c-1.1,0-2-0.5-2.3-1.2v3.8C80.4,43.1,79,43.1,79,43.1z M82.5,34.2
	c-1.3,0-2.1,1.1-2.1,2.5c0,1.5,0.9,2.5,2.1,2.5c1.3,0,2.1-1.1,2.1-2.5C84.6,35.2,83.8,34.2,82.5,34.2z"/>
<path class="st13" d="M145.5,9.3h96.2v50h-96.2V9.3z"/>
<path class="st12" d="M168.1,39.8V29.2h6.5v1.4h-5V34h4.5v1.4h-4.5v4.5h-1.5V39.8z M182.7,37.7c-0.4,1.3-1.6,2.3-3.2,2.3
	c-1.9,0-3.6-1.4-3.6-3.9c0-2.3,1.6-3.8,3.4-3.8c2.2,0,3.5,1.5,3.5,3.8v0.5h-5.4c0,1.3,1,2.2,2.2,2.2s1.8-0.6,2-1.5L182.7,37.7z
	 M181.3,35.4c0-1-0.7-1.8-2-1.8c-1.2,0-1.9,0.9-2,1.8H181.3z M187.1,35.7l2-0.3c0.4-0.1,0.6-0.3,0.6-0.5c0-0.7-0.5-1.3-1.6-1.3
	c-1,0-1.5,0.6-1.6,1.5l-1.4-0.3c0.2-1.4,1.4-2.3,3-2.3c2.2,0,3,1.2,3,2.6v3.6c0,0.6,0.1,1,0.1,1.2h-1.4c0-0.2-0.1-0.5-0.1-1
	c-0.3,0.5-1,1.2-2.3,1.2c-1.5,0-2.4-1-2.4-2.2C184.9,36.6,185.8,35.8,187.1,35.7L187.1,35.7z M189.6,36.7v-0.3l-2.2,0.3
	c-0.6,0.1-1,0.4-1,1.1c0,0.5,0.5,1,1.2,1C188.6,38.8,189.6,38.3,189.6,36.7z M195.8,32.6h1.6v1.3h-1.6v3.8c0,0.7,0.3,1,1,1
	c0.2,0,0.4,0,0.6-0.1v1.2c-0.1,0-0.5,0.1-1,0.1c-1.2,0-2-0.8-2-2.1v-4H193v-1.3h0.4c0.8,0,1.1-0.5,1.1-1.1v-1.2h1.3V32.6z M202.6,40
	c-1.7,0-2.7-1.3-2.7-2.9v-4.5h1.4v4.3c0,1,0.5,1.9,1.6,1.9s1.7-0.8,1.7-1.8v-4.3h1.4v5.9c0,0.6,0,1.1,0.1,1.3h-1.3
	c0-0.2-0.1-0.6-0.1-0.9C204.4,39.7,203.5,40,202.6,40z M213.2,34h-0.6c-1.2,0-2,0.6-2,2.2v3.6h-1.4v-7.2h1.4v1.3
	c0.5-1.1,1.4-1.4,2.2-1.4h0.5V34L213.2,34z M221.7,37.7c-0.4,1.3-1.6,2.3-3.2,2.3c-1.9,0-3.6-1.4-3.6-3.9c0-2.3,1.6-3.8,3.5-3.8
	c2.2,0,3.5,1.5,3.5,3.8v0.5h-5.4c0,1.3,1,2.2,2.2,2.2s1.8-0.6,2-1.5L221.7,37.7z M220.3,35.4c0-1-0.7-1.8-2-1.8
	c-1.2,0-1.9,0.9-2,1.8H220.3z"/>
<path class="st13" d="M283.1,9.3h96.2v50h-96.2L283.1,9.3z"/>
<path class="st12" d="M305.6,39.8V29.2h6.5v1.4h-5V34h4.5v1.4h-4.5v4.5h-1.5V39.8z M320.2,37.7c-0.4,1.3-1.6,2.3-3.2,2.3
	c-1.9,0-3.6-1.4-3.6-3.9c0-2.3,1.6-3.8,3.5-3.8c2.2,0,3.5,1.5,3.5,3.8v0.5H315c0,1.3,1,2.2,2.2,2.2s1.8-0.6,2-1.5L320.2,37.7z
	 M318.8,35.4c0-1-0.7-1.8-2-1.8c-1.2,0-1.9,0.9-2,1.8H318.8z M324.6,35.7l2-0.3c0.4-0.1,0.6-0.3,0.6-0.5c0-0.7-0.5-1.3-1.6-1.3
	c-1,0-1.5,0.6-1.6,1.5l-1.4-0.3c0.2-1.4,1.4-2.3,3-2.3c2.2,0,3,1.2,3,2.6v3.6c0,0.6,0.1,1,0.1,1.2h-1.5c0-0.2-0.1-0.5-0.1-1
	c-0.3,0.5-1,1.2-2.3,1.2c-1.5,0-2.4-1-2.4-2.2C322.4,36.6,323.3,35.8,324.6,35.7L324.6,35.7z M327.1,36.7v-0.3l-2.2,0.3
	c-0.6,0.1-1.1,0.4-1.1,1.1c0,0.5,0.5,1,1.2,1C326.1,38.8,327.1,38.3,327.1,36.7z M333.3,32.6h1.6v1.3h-1.6v3.8c0,0.7,0.3,1,1,1
	c0.2,0,0.4,0,0.6-0.1v1.2c-0.1,0-0.5,0.1-1,0.1c-1.2,0-2-0.8-2-2.1v-4h-1.4v-1.3h0.4c0.8,0,1.1-0.5,1.1-1.1v-1.2h1.3V32.6z
	 M340.1,40c-1.7,0-2.7-1.3-2.7-2.9v-4.5h1.4v4.3c0,1,0.4,1.9,1.6,1.9c1.1,0,1.7-0.8,1.7-1.8v-4.3h1.4v5.9c0,0.6,0,1.1,0.1,1.3h-1.3
	c0-0.2-0.1-0.6-0.1-0.9C341.9,39.7,341,40,340.1,40z M350.7,34h-0.6c-1.2,0-2,0.6-2,2.2v3.6h-1.4v-7.2h1.4v1.3
	c0.5-1.1,1.4-1.4,2.2-1.4h0.5V34L350.7,34z M359.2,37.7c-0.4,1.3-1.6,2.3-3.2,2.3c-1.9,0-3.6-1.4-3.6-3.9c0-2.3,1.6-3.8,3.4-3.8
	c2.2,0,3.5,1.5,3.5,3.8v0.5h-5.4c0,1.3,1,2.2,2.2,2.2s1.8-0.6,2-1.5L359.2,37.7z M357.8,35.4c0-1-0.7-1.8-2-1.8
	c-1.2,0-1.9,0.9-2,1.8H357.8z"/>
<rect x="395" y="139.7" class="st14" width="155" height="59.2"/>
<g>
	<path class="st15" d="M443,207h3.3c1.9,0,3.5,0.7,3.5,2.8c0,2.1-1.6,3-3.5,3h-1.2v3.3H443V207z M446.1,211.2c1.1,0,1.7-0.5,1.7-1.4
		c0-0.9-0.6-1.2-1.7-1.2h-1.1v2.6H446.1z M445.9,212.3l1.4-1.3l2.9,5.1H448L445.9,212.3z"/>
	<path class="st15" d="M450.9,212.7c0-2.3,1.6-3.6,3.3-3.6c2,0,3,1.4,3,3.3c0,0.4,0,0.7-0.1,0.9h-4.2c0.2,1,0.9,1.5,1.8,1.5
		c0.5,0,1-0.2,1.5-0.5l0.7,1.2c-0.7,0.5-1.6,0.8-2.5,0.8C452.4,216.3,450.9,215,450.9,212.7z M455.4,211.9c0-0.8-0.3-1.3-1.2-1.3
		c-0.7,0-1.2,0.4-1.4,1.3H455.4z"/>
	<path class="st15" d="M460.4,215.4L460.4,215.4l-0.2,0.7h-1.6v-9.8h2.1v2.4l-0.1,1.1c0.5-0.5,1.2-0.8,1.8-0.8
		c1.7,0,2.7,1.4,2.7,3.5c0,2.4-1.4,3.8-2.9,3.8C461.6,216.3,460.9,216,460.4,215.4z M463,212.6c0-1.2-0.4-1.9-1.2-1.9
		c-0.4,0-0.8,0.2-1.2,0.6v2.9c0.4,0.3,0.8,0.4,1.1,0.4C462.4,214.6,463,214,463,212.6z"/>
	<path class="st15" d="M466.1,214.2c0-1.5,1.2-2.3,3.9-2.5c0-0.6-0.3-1-1.1-1c-0.6,0-1.2,0.2-1.8,0.6l-0.7-1.4
		c0.9-0.5,1.9-0.9,3-0.9c1.8,0,2.8,1,2.8,3.1v4h-1.7l-0.1-0.7h-0.1c-0.6,0.5-1.2,0.9-2,0.9C466.9,216.3,466.1,215.4,466.1,214.2z
		 M470,214.1v-1.2c-1.5,0.2-1.9,0.6-1.9,1.1c0,0.4,0.3,0.7,0.8,0.7C469.3,214.7,469.6,214.5,470,214.1z"/>
	<path class="st15" d="M473.2,215.3l0.9-1.3c0.6,0.5,1.2,0.7,1.8,0.7c0.6,0,0.9-0.2,0.9-0.6c0-0.5-0.7-0.7-1.4-0.9
		c-0.9-0.3-1.8-0.9-1.8-2c0-1.3,1.1-2.2,2.7-2.2c1.1,0,1.9,0.4,2.4,0.9l-0.9,1.2c-0.5-0.4-1-0.6-1.5-0.6c-0.5,0-0.8,0.2-0.8,0.6
		c0,0.4,0.7,0.6,1.4,0.9c0.9,0.3,1.9,0.8,1.9,2.1c0,1.3-1,2.2-2.9,2.2C474.9,216.3,473.9,215.9,473.2,215.3z"/>
	<path class="st15" d="M479.8,207.1c0-0.6,0.5-1.1,1.2-1.1c0.7,0,1.2,0.4,1.2,1.1c0,0.6-0.5,1.1-1.2,1.1
		C480.3,208.2,479.8,207.7,479.8,207.1z M480,209.2h2.1v6.9H480V209.2z"/>
	<path class="st15" d="M483.8,209.2h1.7l0.1,0.9h0.1c0.6-0.6,1.3-1,2.2-1c1.5,0,2.2,1.1,2.2,2.8v4.3h-2.1v-4.1c0-1-0.3-1.3-0.9-1.3
		c-0.5,0-0.8,0.2-1.3,0.7v4.7h-2.1V209.2z"/>
	<path class="st15" d="M491.4,217.3c0-0.6,0.3-1,1-1.4v-0.1c-0.4-0.2-0.6-0.6-0.6-1.2c0-0.5,0.3-1,0.8-1.3v-0.1
		c-0.5-0.3-0.9-1-0.9-1.8c0-1.7,1.4-2.5,2.9-2.5c0.4,0,0.8,0.1,1.1,0.2h2.5v1.5H497c0.1,0.2,0.2,0.6,0.2,0.9c0,1.6-1.2,2.3-2.7,2.3
		c-0.3,0-0.5,0-0.8-0.1c-0.2,0.1-0.2,0.3-0.2,0.5c0,0.3,0.3,0.5,1,0.5h1.1c1.7,0,2.7,0.5,2.7,1.8c0,1.4-1.5,2.5-3.9,2.5
		C492.7,219.1,491.4,218.6,491.4,217.3z M496.3,217c0-0.4-0.4-0.5-1.1-0.5h-0.7c-0.5,0-0.7,0-1-0.1c-0.3,0.2-0.4,0.4-0.4,0.7
		c0,0.5,0.6,0.8,1.5,0.8C495.6,217.8,496.3,217.4,496.3,217z M495.4,211.5c0-0.7-0.4-1.1-0.9-1.1s-0.9,0.4-0.9,1.1
		c0,0.8,0.4,1.2,0.9,1.2S495.4,212.3,495.4,211.5z"/>
</g>
<rect x="597.3" y="78.1" class="st14" width="155" height="59.2"/>
<g>
	<path class="st15" d="M603.4,58.4h2.3l1.5,4.1c0.2,0.5,0.3,1.1,0.5,1.7h0.1c0.2-0.6,0.3-1.1,0.5-1.7l1.4-4.1h2.3v9.1H610v-3.4
		c0-0.9,0.2-2.2,0.3-3.1h-0.1l-0.7,2.2l-1.3,3.5H607l-1.3-3.5l-0.7-2.2h-0.1c0.1,0.9,0.3,2.2,0.3,3.1v3.4h-1.9V58.4z"/>
	<path class="st15" d="M613.5,64.1c0-2.3,1.6-3.6,3.3-3.6c2,0,3,1.4,3,3.3c0,0.4,0,0.7-0.1,0.9h-4.2c0.2,1,0.9,1.5,1.8,1.5
		c0.5,0,1-0.2,1.5-0.5l0.7,1.2c-0.7,0.5-1.6,0.8-2.5,0.8C615,67.7,613.5,66.4,613.5,64.1z M617.9,63.3c0-0.8-0.3-1.3-1.2-1.3
		c-0.7,0-1.2,0.4-1.4,1.3H617.9z"/>
	<path class="st15" d="M621.1,60.6h1.7l0.1,1.2h0.1c0.5-0.9,1.3-1.4,2-1.4c0.4,0,0.6,0.1,0.8,0.1l-0.3,1.8c-0.2-0.1-0.5-0.1-0.8-0.1
		c-0.5,0-1.2,0.3-1.5,1.3v4h-2.1V60.6z"/>
	<path class="st15" d="M626.1,68.7c0-0.6,0.3-1,1-1.4v-0.1c-0.4-0.2-0.6-0.6-0.6-1.2c0-0.5,0.3-1,0.8-1.3v-0.1
		c-0.5-0.3-0.9-1-0.9-1.8c0-1.7,1.4-2.5,2.9-2.5c0.4,0,0.8,0.1,1.1,0.2h2.5v1.5h-1.1c0.1,0.2,0.2,0.6,0.2,0.9c0,1.6-1.2,2.3-2.7,2.3
		c-0.3,0-0.5,0-0.8-0.1c-0.2,0.1-0.2,0.3-0.2,0.5c0,0.3,0.3,0.5,1,0.5h1.1c1.7,0,2.7,0.5,2.7,1.8c0,1.4-1.5,2.5-3.9,2.5
		C627.4,70.5,626.1,70,626.1,68.7z M630.9,68.3c0-0.4-0.4-0.5-1.1-0.5h-0.7c-0.5,0-0.7,0-1-0.1c-0.3,0.2-0.4,0.4-0.4,0.7
		c0,0.5,0.6,0.8,1.5,0.8C630.3,69.2,630.9,68.8,630.9,68.3z M630.1,62.9c0-0.7-0.4-1.1-0.9-1.1s-0.9,0.4-0.9,1.1
		c0,0.8,0.4,1.2,0.9,1.2S630.1,63.7,630.1,62.9z"/>
	<path class="st15" d="M633.9,58.5c0-0.6,0.5-1.1,1.2-1.1c0.7,0,1.2,0.4,1.2,1.1c0,0.6-0.5,1.1-1.2,1.1
		C634.4,59.6,633.9,59.1,633.9,58.5z M634,60.6h2.1v6.9H634V60.6z"/>
	<path class="st15" d="M637.9,60.6h1.7l0.1,0.9h0.1c0.6-0.6,1.3-1,2.2-1c1.5,0,2.2,1.1,2.2,2.8v4.3h-2.1v-4.1c0-1-0.3-1.3-0.9-1.3
		c-0.5,0-0.8,0.2-1.3,0.7v4.7h-2.1V60.6z"/>
	<path class="st15" d="M645.5,68.7c0-0.6,0.3-1,1-1.4v-0.1c-0.4-0.2-0.6-0.6-0.6-1.2c0-0.5,0.3-1,0.8-1.3v-0.1
		c-0.5-0.3-0.9-1-0.9-1.8c0-1.7,1.4-2.5,2.9-2.5c0.4,0,0.8,0.1,1.1,0.2h2.5v1.5H651c0.1,0.2,0.2,0.6,0.2,0.9c0,1.6-1.2,2.3-2.7,2.3
		c-0.3,0-0.5,0-0.8-0.1c-0.2,0.1-0.2,0.3-0.2,0.5c0,0.3,0.3,0.5,1,0.5h1.1c1.7,0,2.7,0.5,2.7,1.8c0,1.4-1.5,2.5-3.9,2.5
		C646.7,70.5,645.5,70,645.5,68.7z M650.3,68.3c0-0.4-0.4-0.5-1.1-0.5h-0.7c-0.5,0-0.7,0-1-0.1c-0.3,0.2-0.4,0.4-0.4,0.7
		c0,0.5,0.6,0.8,1.5,0.8C649.6,69.2,650.3,68.8,650.3,68.3z M649.5,62.9c0-0.7-0.4-1.1-0.9-1.1s-0.9,0.4-0.9,1.1
		c0,0.8,0.4,1.2,0.9,1.2S649.5,63.7,649.5,62.9z"/>
	<path class="st15" d="M656.2,60.6h1.7l0.1,0.9h0.1c0.6-0.6,1.3-1,2.2-1c1.5,0,2.2,1.1,2.2,2.8v4.3h-2.1v-4.1c0-1-0.3-1.3-0.9-1.3
		c-0.5,0-0.8,0.2-1.3,0.7v4.7h-2.1V60.6z"/>
	<path class="st15" d="M663.8,64.1c0-2.3,1.6-3.6,3.4-3.6s3.4,1.3,3.4,3.6c0,2.3-1.6,3.6-3.4,3.6S663.8,66.4,663.8,64.1z
		 M668.4,64.1c0-1.2-0.4-2-1.3-2s-1.3,0.8-1.3,2s0.4,2,1.3,2S668.4,65.3,668.4,64.1z"/>
	<path class="st15" d="M674.1,60.7l1-0.1h3.2v1.6h-4.2V60.7z M675,60.2c0-1.5,0.7-2.7,2.6-2.7c0.6,0,1.1,0.1,1.4,0.2l-0.4,1.5
		c-0.2-0.1-0.5-0.1-0.7-0.1c-0.5,0-0.8,0.3-0.8,1v7.4H675V60.2z"/>
	<path class="st15" d="M678.8,65.6c0-1.5,1.2-2.3,3.9-2.5c0-0.6-0.3-1-1.1-1c-0.6,0-1.2,0.2-1.8,0.6l-0.7-1.4c0.9-0.5,1.9-0.9,3-0.9
		c1.8,0,2.8,1,2.8,3.1v4h-1.7l-0.1-0.7h-0.1c-0.6,0.5-1.2,0.9-2,0.9C679.6,67.7,678.8,66.8,678.8,65.6z M682.7,65.5v-1.2
		c-1.5,0.2-1.9,0.6-1.9,1.1c0,0.4,0.3,0.7,0.8,0.7C682,66.1,682.4,65.9,682.7,65.5z"/>
	<path class="st15" d="M685.9,66.7l0.9-1.3c0.6,0.5,1.2,0.7,1.8,0.7c0.6,0,0.9-0.2,0.9-0.6c0-0.5-0.7-0.7-1.4-0.9
		c-0.9-0.3-1.8-0.9-1.8-2c0-1.3,1.1-2.2,2.7-2.2c1.1,0,1.9,0.4,2.4,0.9l-0.9,1.2c-0.5-0.4-1-0.6-1.5-0.6c-0.5,0-0.8,0.2-0.8,0.6
		c0,0.4,0.7,0.6,1.4,0.9c0.9,0.3,1.9,0.8,1.9,2.1c0,1.3-1,2.2-2.9,2.2C687.6,67.7,686.6,67.3,685.9,66.7z"/>
	<path class="st15" d="M692.7,65v-2.8h-0.9v-1.5l1.1-0.1l0.2-1.8h1.7v1.8h1.7v1.6h-1.7V65c0,0.8,0.4,1.1,0.9,1.1
		c0.2,0,0.5-0.1,0.7-0.1l0.3,1.5c-0.4,0.1-0.9,0.3-1.5,0.3C693.4,67.7,692.7,66.6,692.7,65z"/>
	<path class="st15" d="M700,60.7l1-0.1h3.2v1.6H700V60.7z M700.9,60.2c0-1.5,0.7-2.7,2.6-2.7c0.6,0,1.1,0.1,1.4,0.2l-0.4,1.5
		c-0.2-0.1-0.5-0.1-0.7-0.1c-0.5,0-0.8,0.3-0.8,1v7.4h-2.1V60.2z"/>
	<path class="st15" d="M704.8,64.1c0-2.3,1.6-3.6,3.4-3.6s3.4,1.3,3.4,3.6c0,2.3-1.6,3.6-3.4,3.6S704.8,66.4,704.8,64.1z
		 M709.5,64.1c0-1.2-0.4-2-1.3-2s-1.3,0.8-1.3,2s0.4,2,1.3,2S709.5,65.3,709.5,64.1z"/>
	<path class="st15" d="M713,60.6h1.7l0.1,1.2h0.1c0.5-0.9,1.3-1.4,2-1.4c0.4,0,0.6,0.1,0.8,0.1l-0.3,1.8c-0.2-0.1-0.5-0.1-0.8-0.1
		c-0.5,0-1.2,0.3-1.5,1.3v4H713V60.6z"/>
	<path class="st15" d="M718.1,60.6h2l0.7,3.2c0.1,0.7,0.2,1.4,0.3,2.1h0.1c0.1-0.7,0.2-1.4,0.4-2.1l0.8-3.2h1.8l0.8,3.2
		c0.2,0.7,0.3,1.4,0.4,2.1h0.1c0.1-0.7,0.2-1.4,0.3-2.1l0.7-3.2h1.9l-1.7,6.9h-2.4l-0.6-2.8c-0.1-0.6-0.2-1.3-0.4-2h-0.1
		c-0.1,0.7-0.2,1.4-0.4,2l-0.6,2.8h-2.4L718.1,60.6z"/>
	<path class="st15" d="M729,65.6c0-1.5,1.2-2.3,3.9-2.5c0-0.6-0.3-1-1.1-1c-0.6,0-1.2,0.2-1.8,0.6l-0.7-1.4c0.9-0.5,1.9-0.9,3-0.9
		c1.8,0,2.8,1,2.8,3.1v4h-1.7l-0.1-0.7h-0.1c-0.6,0.5-1.2,0.9-2,0.9C729.8,67.7,729,66.8,729,65.6z M732.9,65.5v-1.2
		c-1.5,0.2-1.9,0.6-1.9,1.1c0,0.4,0.3,0.7,0.8,0.7C732.3,66.1,732.6,65.9,732.9,65.5z"/>
	<path class="st15" d="M736.7,60.6h1.7l0.1,1.2h0.1c0.5-0.9,1.3-1.4,2-1.4c0.4,0,0.6,0.1,0.8,0.1l-0.3,1.8c-0.2-0.1-0.5-0.1-0.8-0.1
		c-0.5,0-1.2,0.3-1.5,1.3v4h-2.1V60.6z"/>
	<path class="st15" d="M741.8,64.1c0-2.3,1.4-3.6,2.9-3.6c0.8,0,1.2,0.3,1.7,0.7l-0.1-1.1v-2.4h2.1v9.8h-1.7l-0.1-0.7h-0.1
		c-0.5,0.5-1.2,0.9-1.8,0.9C742.9,67.7,741.8,66.3,741.8,64.1z M746.3,65.4v-2.9c-0.4-0.3-0.8-0.4-1.1-0.4c-0.7,0-1.3,0.6-1.3,1.9
		c0,1.4,0.5,2,1.3,2C745.6,66,746,65.8,746.3,65.4z"/>
</g>
</svg>
